<svg width="25" height="32" viewBox="0 0 25 32" fill="none" xmlns="http://www.w3.org/2000/svg">
<path d="M12.4995 0C5.60718 0 0 4.98215 0 11.1054C0 16.9996 11.341 30.7705 11.8239 31.3536L12.2745 31.8985C12.3272 31.9626 12.4112 32 12.4995 32C12.5891 32 12.6725 31.9626 12.7257 31.8985L13.1761 31.3536C13.6593 30.7705 25 16.9996 25 11.1054C25 4.98215 19.3919 0 12.4995 0ZM12.4995 7.12748C14.969 7.12748 16.9771 8.91158 16.9771 11.1054C16.9771 13.2981 14.9689 15.0834 12.4995 15.0834C10.0314 15.0834 8.02181 13.2981 8.02181 11.1054C8.02181 8.91158 10.0313 7.12748 12.4995 7.12748Z" fill="#f69026"/>
</svg>
