<svg width="28" height="28" viewBox="0 0 28 28" fill="none" xmlns="http://www.w3.org/2000/svg">
<path d="M21.8519 13.495C21.8519 9.44501 17.8879 5.48101 13.8379 5.48101M26.0949 13.024C26.0949 6.39601 20.9369 1.23901 14.3099 1.23901M7.2389 4.06701L10.0669 6.89501C10.2527 7.08074 10.4001 7.30126 10.5007 7.54396C10.6012 7.78666 10.653 8.0468 10.653 8.30951C10.653 8.57223 10.6012 8.83236 10.5007 9.07507C10.4001 9.31777 10.2527 9.53829 10.0669 9.72401L8.5419 11.249C8.3121 11.4787 8.1741 11.7844 8.15385 12.1087C8.13359 12.433 8.23247 12.7535 8.4319 13.01L9.3599 14.202C10.4555 15.6106 11.7223 16.8774 13.1309 17.973L14.3229 18.901C14.8539 19.314 15.6089 19.267 16.0849 18.791L17.6089 17.266C17.7946 17.0802 18.0151 16.9328 18.2579 16.8323C18.5006 16.7317 18.7607 16.6799 19.0234 16.6799C19.2861 16.6799 19.5463 16.7317 19.789 16.8323C20.0317 16.9328 20.2522 17.0802 20.4379 17.266L23.2659 20.095C23.6408 20.4701 23.8515 20.9787 23.8515 21.509C23.8515 22.0393 23.6408 22.548 23.2659 22.923L20.5539 25.636C20.3587 25.8312 20.1251 25.9838 19.868 26.0844C19.6109 26.1849 19.3358 26.2311 19.0599 26.22C15.1039 26.062 11.1639 24.02 7.2389 20.095C3.3129 16.169 1.2719 12.229 1.1139 8.27301C1.10287 7.99717 1.14905 7.72202 1.24956 7.4649C1.35007 7.20778 1.50272 6.97425 1.6979 6.77901L4.4099 4.06701C4.59563 3.88121 4.81615 3.73382 5.05885 3.63326C5.30155 3.5327 5.56169 3.48094 5.8244 3.48094C6.08712 3.48094 6.34725 3.5327 6.58996 3.63326C6.83266 3.73382 7.05318 3.88121 7.2389 4.06701Z" stroke="#f69026" stroke-width="2" stroke-linecap="round" stroke-linejoin="round"/>
</svg>
