<svg width="28" height="30" viewBox="0 0 28 30" fill="none" xmlns="http://www.w3.org/2000/svg">
<path d="M4.5835 0.833333V11.25C4.5835 11.4801 4.39695 11.6667 4.16683 11.6667C3.93671 11.6667 3.75016 11.4801 3.75016 11.25V0.833332C3.75016 0.603214 3.93671 0.416667 4.16683 0.416667C4.39695 0.416667 4.5835 0.603215 4.5835 0.833333ZM3.75016 29.1667V18.5417C3.75016 18.3115 3.93671 18.125 4.16683 18.125C4.39695 18.125 4.5835 18.3115 4.5835 18.5417V29.1667C4.5835 29.3968 4.39695 29.5833 4.16683 29.5833C3.93671 29.5833 3.75016 29.3968 3.75016 29.1667Z" stroke="#C4C4C4" stroke-width="0.833333"/>
<circle cx="4.16667" cy="15" r="3.33333" stroke="#C4C4C4" stroke-width="1.66667"/>
<path d="M23.7505 0.833333V11.25C23.7505 11.4801 23.5639 11.6667 23.3338 11.6667C23.1037 11.6667 22.9172 11.4801 22.9172 11.25V0.833332C22.9172 0.603214 23.1037 0.416667 23.3338 0.416667C23.5639 0.416667 23.7505 0.603215 23.7505 0.833333ZM22.9172 29.1667V18.5417C22.9172 18.3115 23.1037 18.125 23.3338 18.125C23.5639 18.125 23.7505 18.3115 23.7505 18.5417V29.1667C23.7505 29.3968 23.5639 29.5833 23.3338 29.5833C23.1037 29.5833 22.9172 29.3968 22.9172 29.1667Z" stroke="#C4C4C4" stroke-width="0.833333"/>
<circle cx="23.3337" cy="15" r="3.33333" stroke="#C4C4C4" stroke-width="1.66667"/>
<rect x="12.9165" y="6.66669" width="1.66667" height="23.3333" rx="0.833333" fill="#C4C4C4"/>
<circle cx="13.7502" cy="4.16667" r="3.33333" stroke="#C4C4C4" stroke-width="1.66667"/>
</svg>
