<svg width="24" height="24" viewBox="0 0 24 24" fill="none" xmlns="http://www.w3.org/2000/svg">
<g clip-path="url(#clip0)">
<path d="M21.7432 5.36444L21.2133 3.776C21.0115 3.17102 20.4474 2.76453 19.8098 2.76453H15.3561V1.31451C15.3561 0.589783 14.7669 0 14.0423 0H9.96383C9.23947 0 8.65005 0.589783 8.65005 1.31451V2.76453H4.19656C3.5588 2.76453 2.99465 3.17102 2.79287 3.776L2.26297 5.36444C2.1423 5.72607 2.20346 6.12653 2.4263 6.43579C2.64913 6.74506 3.00967 6.92981 3.39089 6.92981H3.94479L5.16391 22.0051C5.25454 23.1237 6.20376 24 7.32528 24H16.9282C18.0496 24 18.999 23.1237 19.0894 22.0049L20.3086 6.92981H20.6153C20.9965 6.92981 21.357 6.74506 21.5799 6.43597C21.8027 6.12671 21.8639 5.72607 21.7432 5.36444ZM10.0563 1.40625H13.9499V2.76453H10.0563V1.40625ZM17.6878 21.8915C17.6559 22.2854 17.3223 22.5938 16.9282 22.5938H7.32528C6.93124 22.5938 6.59762 22.2854 6.56576 21.8915L5.35562 6.92981H18.8977L17.6878 21.8915ZM3.69247 5.52356L4.12698 4.22095C4.13687 4.19092 4.16488 4.17078 4.19656 4.17078H19.8098C19.8415 4.17078 19.8693 4.19092 19.8794 4.22095L20.3139 5.52356H3.69247Z" fill="#A39F9F"/>
<path d="M15.4459 21.8417C15.4583 21.8424 15.4706 21.8426 15.483 21.8426C15.8545 21.8426 16.1651 21.5515 16.1845 21.1761L16.8448 8.50117C16.8649 8.11335 16.5668 7.78248 16.1792 7.76234C15.7905 7.74165 15.4607 8.04011 15.4404 8.42792L14.7803 21.1029C14.7601 21.4907 15.058 21.8215 15.4459 21.8417Z" fill="#A39F9F"/>
<path d="M7.85457 21.1778C7.87508 21.5526 8.18526 21.8427 8.55604 21.8427C8.56886 21.8427 8.58204 21.8423 8.59504 21.8416C8.98268 21.8205 9.27986 21.4891 9.2588 21.1013L8.56721 8.42636C8.54616 8.03855 8.21474 7.74137 7.82692 7.76261C7.43929 7.78366 7.14211 8.11509 7.16316 8.5029L7.85457 21.1778Z" fill="#A39F9F"/>
<path d="M12.0117 21.8426C12.4001 21.8426 12.7148 21.5278 12.7148 21.1395V8.46455C12.7148 8.07619 12.4001 7.76143 12.0117 7.76143C11.6234 7.76143 11.3086 8.07619 11.3086 8.46455V21.1395C11.3086 21.5278 11.6234 21.8426 12.0117 21.8426Z" fill="#A39F9F"/>
</g>
<defs>
<clipPath id="clip0">
<rect width="24" height="24" fill="white"/>
</clipPath>
</defs>
</svg>
