<svg width="134" height="20" viewBox="0 0 134 20" fill="none" xmlns="http://www.w3.org/2000/svg">
<path d="M2.58984 13.457C3.28516 14.2461 3.96875 14.8359 4.64062 15.2266C5.32031 15.6172 5.99609 15.8125 6.66797 15.8125C7.29297 15.8125 7.80469 15.6445 8.20312 15.3086C8.60938 14.9727 8.8125 14.5469 8.8125 14.0312C8.8125 13.4609 8.63672 13.0234 8.28516 12.7188C7.94141 12.4062 7.15625 12.0859 5.92969 11.7578C4.25 11.3047 3.0625 10.7148 2.36719 9.98828C1.67188 9.26172 1.32422 8.26562 1.32422 7C1.32422 5.35938 1.87109 4.02344 2.96484 2.99219C4.06641 1.95312 5.49219 1.43359 7.24219 1.43359C8.1875 1.43359 9.08203 1.5625 9.92578 1.82031C10.7773 2.07031 11.582 2.45312 12.3398 2.96875L10.875 6.33203C10.3438 5.87891 9.79688 5.53906 9.23438 5.3125C8.67969 5.07812 8.12891 4.96094 7.58203 4.96094C7.01953 4.96094 6.5625 5.09766 6.21094 5.37109C5.85938 5.63672 5.68359 5.98047 5.68359 6.40234C5.68359 6.83203 5.83594 7.17578 6.14062 7.43359C6.45312 7.69141 7.05078 7.9375 7.93359 8.17188L8.14453 8.23047C10.0508 8.74609 11.3047 9.3125 11.9062 9.92969C12.3125 10.3516 12.6211 10.8594 12.832 11.4531C13.043 12.0391 13.1484 12.6914 13.1484 13.4102C13.1484 15.2305 12.5508 16.6953 11.3555 17.8047C10.1602 18.9062 8.56641 19.457 6.57422 19.457C5.37891 19.457 4.28906 19.2539 3.30469 18.8477C2.32812 18.4414 1.38672 17.8047 0.480469 16.9375L2.58984 13.457ZM27.6211 7.16406V13.2109C27.6211 14.5469 27.5117 15.5391 27.293 16.1875C27.082 16.8281 26.7227 17.3984 26.2148 17.8984C25.6914 18.4219 25.0391 18.8125 24.2578 19.0703C23.4766 19.3281 22.5586 19.457 21.5039 19.457C20.457 19.457 19.543 19.3281 18.7617 19.0703C17.9883 18.8125 17.3281 18.4219 16.7812 17.8984C16.2734 17.4141 15.9141 16.8477 15.7031 16.1992C15.4922 15.543 15.3867 14.5469 15.3867 13.2109V7.16406H19.3711V13.4805C19.3711 14.4727 19.5352 15.1914 19.8633 15.6367C20.1914 16.0742 20.7227 16.293 21.457 16.293C22.1992 16.293 22.7305 16.0781 23.0508 15.6484C23.3789 15.2109 23.543 14.4883 23.543 13.4805V7.16406H27.6211ZM29.5195 18.0156L30.3867 14.8281C30.9961 15.3594 31.6641 15.7695 32.3906 16.0586C33.125 16.3398 33.8633 16.4805 34.6055 16.4805C35.1289 16.4805 35.5273 16.3984 35.8008 16.2344C36.0742 16.0625 36.2109 15.8164 36.2109 15.4961C36.2109 14.9727 35.6602 14.582 34.5586 14.3242C34.1992 14.2383 33.9102 14.1641 33.6914 14.1016C32.4414 13.7578 31.5312 13.3086 30.9609 12.7539C30.3984 12.1914 30.1172 11.4648 30.1172 10.5742C30.1172 9.42578 30.5469 8.50781 31.4062 7.82031C32.2734 7.13281 33.4453 6.78906 34.9219 6.78906C35.6797 6.78906 36.4492 6.87891 37.2305 7.05859C38.0195 7.23047 38.8242 7.5 39.6445 7.86719L38.7773 10.7383C38.2227 10.3633 37.6602 10.0781 37.0898 9.88281C36.5195 9.6875 35.9492 9.58984 35.3789 9.58984C34.9023 9.58984 34.543 9.66406 34.3008 9.8125C34.0586 9.96094 33.9375 10.1758 33.9375 10.457C33.9375 10.8789 34.4844 11.2344 35.5781 11.5234C35.8281 11.5938 36.0156 11.6445 36.1406 11.6758C37.5859 12.0898 38.5898 12.5781 39.1523 13.1406C39.7227 13.6953 40.0078 14.4492 40.0078 15.4023C40.0078 16.6133 39.543 17.5938 38.6133 18.3438C37.6836 19.0859 36.4531 19.457 34.9219 19.457C33.8828 19.457 32.918 19.3359 32.0273 19.0938C31.1367 18.8594 30.3008 18.5 29.5195 18.0156ZM42.2461 19V0.835938H46.3477V7.21094C46.3477 7.63281 46.3359 8.02344 46.3125 8.38281C46.2891 8.74219 46.2539 9.06641 46.207 9.35547C46.7305 8.47266 47.3477 7.82422 48.0586 7.41016C48.7695 6.99609 49.6172 6.78906 50.6016 6.78906C51.3672 6.78906 52.0469 6.91406 52.6406 7.16406C53.2422 7.40625 53.7305 7.75781 54.1055 8.21875C54.418 8.61719 54.6406 9.10156 54.7734 9.67188C54.9062 10.2422 54.9727 11.0938 54.9727 12.2266V19H50.7891V12.6602C50.7891 11.7148 50.6328 11.0273 50.3203 10.5977C50.0156 10.168 49.5234 9.95312 48.8438 9.95312C47.9766 9.95312 47.3438 10.2734 46.9453 10.9141C46.5469 11.5547 46.3477 12.5938 46.3477 14.0312V19H42.2461ZM57.832 3.47266C57.832 2.83984 58.0547 2.30078 58.5 1.85547C58.9531 1.41016 59.4961 1.1875 60.1289 1.1875C60.7852 1.1875 61.332 1.40625 61.7695 1.84375C62.2148 2.28125 62.4375 2.82422 62.4375 3.47266C62.4375 4.12109 62.2109 4.67188 61.7578 5.125C61.3125 5.57812 60.7695 5.80469 60.1289 5.80469C59.5039 5.80469 58.9648 5.57422 58.5117 5.11328C58.0586 4.65234 57.832 4.10547 57.832 3.47266ZM58.043 19V7.16406H62.2266V19H58.043ZM74.0039 13.457C74.6992 14.2461 75.3828 14.8359 76.0547 15.2266C76.7344 15.6172 77.4102 15.8125 78.082 15.8125C78.707 15.8125 79.2188 15.6445 79.6172 15.3086C80.0234 14.9727 80.2266 14.5469 80.2266 14.0312C80.2266 13.4609 80.0508 13.0234 79.6992 12.7188C79.3555 12.4062 78.5703 12.0859 77.3438 11.7578C75.6641 11.3047 74.4766 10.7148 73.7812 9.98828C73.0859 9.26172 72.7383 8.26562 72.7383 7C72.7383 5.35938 73.2852 4.02344 74.3789 2.99219C75.4805 1.95312 76.9062 1.43359 78.6562 1.43359C79.6016 1.43359 80.4961 1.5625 81.3398 1.82031C82.1914 2.07031 82.9961 2.45312 83.7539 2.96875L82.2891 6.33203C81.7578 5.87891 81.2109 5.53906 80.6484 5.3125C80.0938 5.07812 79.543 4.96094 78.9961 4.96094C78.4336 4.96094 77.9766 5.09766 77.625 5.37109C77.2734 5.63672 77.0977 5.98047 77.0977 6.40234C77.0977 6.83203 77.25 7.17578 77.5547 7.43359C77.8672 7.69141 78.4648 7.9375 79.3477 8.17188L79.5586 8.23047C81.4648 8.74609 82.7188 9.3125 83.3203 9.92969C83.7266 10.3516 84.0352 10.8594 84.2461 11.4531C84.457 12.0391 84.5625 12.6914 84.5625 13.4102C84.5625 15.2305 83.9648 16.6953 82.7695 17.8047C81.5742 18.9062 79.9805 19.457 77.9883 19.457C76.793 19.457 75.7031 19.2539 74.7188 18.8477C73.7422 18.4414 72.8008 17.8047 71.8945 16.9375L74.0039 13.457ZM87.5391 19V10.1172H85.7695V7.16406H87.5391V3.63672H91.6523V7.16406H93.4219V10.1172H91.6523V19H87.5391ZM103.781 13.1172C103.781 12.2344 103.559 11.5391 103.113 11.0312C102.668 10.5234 102.066 10.2695 101.309 10.2695C100.543 10.2695 99.9375 10.5234 99.4922 11.0312C99.0547 11.5391 98.8359 12.2344 98.8359 13.1172C98.8359 14 99.0547 14.6953 99.4922 15.2031C99.9297 15.7031 100.535 15.9531 101.309 15.9531C102.074 15.9531 102.676 15.7031 103.113 15.2031C103.559 14.6953 103.781 14 103.781 13.1172ZM107.93 13.1172C107.93 13.9688 107.762 14.7773 107.426 15.543C107.098 16.3086 106.617 16.9961 105.984 17.6055C105.344 18.2148 104.625 18.6758 103.828 18.9883C103.039 19.3008 102.199 19.457 101.309 19.457C100.402 19.457 99.5508 19.3008 98.7539 18.9883C97.9648 18.6758 97.2578 18.2148 96.6328 17.6055C96.0078 17.0117 95.5312 16.332 95.2031 15.5664C94.875 14.793 94.7109 13.9766 94.7109 13.1172C94.7109 12.25 94.8711 11.4336 95.1914 10.668C95.5195 9.90234 96 9.21484 96.6328 8.60547C97.25 8.00391 97.9531 7.55078 98.7422 7.24609C99.5391 6.94141 100.395 6.78906 101.309 6.78906C102.223 6.78906 103.074 6.94141 103.863 7.24609C104.652 7.55078 105.359 8.00391 105.984 8.60547C106.625 9.22266 107.109 9.91406 107.438 10.6797C107.766 11.4453 107.93 12.2578 107.93 13.1172ZM110.355 19V7.16406H114.293V9.95312C114.699 8.9375 115.254 8.17578 115.957 7.66797C116.66 7.16016 117.512 6.90625 118.512 6.90625C118.676 6.90625 118.84 6.91406 119.004 6.92969C119.176 6.9375 119.348 6.95312 119.52 6.97656L119.121 10.7734C118.871 10.6875 118.625 10.625 118.383 10.5859C118.141 10.5469 117.906 10.5273 117.68 10.5273C116.664 10.5273 115.879 10.8398 115.324 11.4648C114.777 12.082 114.504 12.9609 114.504 14.1016V19H110.355ZM129.223 11.5586C129.145 10.8867 128.887 10.3477 128.449 9.94141C128.02 9.53516 127.488 9.33203 126.855 9.33203C126.176 9.33203 125.633 9.51953 125.227 9.89453C124.828 10.2617 124.562 10.8164 124.43 11.5586H129.223ZM133.336 13.9141H124.336C124.344 14.8281 124.578 15.5352 125.039 16.0352C125.5 16.5273 126.152 16.7734 126.996 16.7734C127.629 16.7734 128.16 16.6562 128.59 16.4219C129.027 16.1797 129.359 15.8242 129.586 15.3555L132.727 16.6211C132.352 17.5273 131.688 18.2266 130.734 18.7188C129.781 19.2109 128.613 19.457 127.23 19.457C125.168 19.457 123.512 18.8867 122.262 17.7461C121.02 16.5977 120.398 15.0859 120.398 13.2109C120.398 11.3672 121.02 9.83594 122.262 8.61719C123.512 7.39844 125.09 6.78906 126.996 6.78906C128.957 6.78906 130.504 7.40625 131.637 8.64062C132.77 9.875 133.336 11.5664 133.336 13.7148V13.9141Z" fill="#0B0B0B"/>
</svg>
