<svg width="68" height="20" viewBox="0 0 68 20" fill="none" xmlns="http://www.w3.org/2000/svg">
<path d="M7.512 19.288C6.184 19.288 4.896 19.112 3.648 18.76C2.416 18.392 1.424 17.92 0.672 17.344L1.992 14.416C2.712 14.944 3.568 15.368 4.56 15.688C5.552 16.008 6.544 16.168 7.536 16.168C8.64 16.168 9.456 16.008 9.984 15.688C10.512 15.352 10.776 14.912 10.776 14.368C10.776 13.968 10.616 13.64 10.296 13.384C9.992 13.112 9.592 12.896 9.096 12.736C8.616 12.576 7.96 12.4 7.128 12.208C5.848 11.904 4.8 11.6 3.984 11.296C3.168 10.992 2.464 10.504 1.872 9.832C1.296 9.16 1.008 8.264 1.008 7.144C1.008 6.168 1.272 5.288 1.8 4.504C2.328 3.704 3.12 3.072 4.176 2.608C5.248 2.144 6.552 1.912 8.088 1.912C9.16 1.912 10.208 2.04 11.232 2.296C12.256 2.552 13.152 2.92 13.92 3.4L12.72 6.352C11.168 5.472 9.616 5.032 8.064 5.032C6.976 5.032 6.168 5.208 5.64 5.56C5.128 5.912 4.872 6.376 4.872 6.952C4.872 7.528 5.168 7.96 5.76 8.248C6.368 8.52 7.288 8.792 8.52 9.064C9.8 9.368 10.848 9.672 11.664 9.976C12.48 10.28 13.176 10.76 13.752 11.416C14.344 12.072 14.64 12.96 14.64 14.08C14.64 15.04 14.368 15.92 13.824 16.72C13.296 17.504 12.496 18.128 11.424 18.592C10.352 19.056 9.048 19.288 7.512 19.288ZM30.0407 6.088V19H26.4887V17.464C25.9927 18.024 25.4007 18.456 24.7127 18.76C24.0247 19.048 23.2807 19.192 22.4807 19.192C20.7847 19.192 19.4407 18.704 18.4487 17.728C17.4567 16.752 16.9607 15.304 16.9607 13.384V6.088H20.7047V12.832C20.7047 14.912 21.5767 15.952 23.3207 15.952C24.2167 15.952 24.9367 15.664 25.4807 15.088C26.0247 14.496 26.2967 13.624 26.2967 12.472V6.088H30.0407ZM37.8533 19.192C36.7813 19.192 35.7333 19.064 34.7093 18.808C33.6853 18.536 32.8693 18.2 32.2613 17.8L33.5093 15.112C34.0853 15.48 34.7813 15.784 35.5973 16.024C36.4133 16.248 37.2133 16.36 37.9973 16.36C39.5813 16.36 40.3733 15.968 40.3733 15.184C40.3733 14.816 40.1573 14.552 39.7253 14.392C39.2933 14.232 38.6293 14.096 37.7333 13.984C36.6773 13.824 35.8053 13.64 35.1173 13.432C34.4293 13.224 33.8293 12.856 33.3173 12.328C32.8213 11.8 32.5732 11.048 32.5732 10.072C32.5732 9.256 32.8053 8.536 33.2693 7.912C33.7493 7.272 34.4373 6.776 35.3333 6.424C36.2453 6.072 37.3173 5.896 38.5493 5.896C39.4613 5.896 40.3653 6 41.2613 6.208C42.1733 6.4 42.9253 6.672 43.5173 7.024L42.2693 9.688C41.1333 9.048 39.8933 8.728 38.5493 8.728C37.7493 8.728 37.1493 8.84 36.7493 9.064C36.3493 9.288 36.1493 9.576 36.1493 9.928C36.1493 10.328 36.3653 10.608 36.7973 10.768C37.2293 10.928 37.9173 11.08 38.8613 11.224C39.9173 11.4 40.7813 11.592 41.4533 11.8C42.1253 11.992 42.7093 12.352 43.2053 12.88C43.7013 13.408 43.9493 14.144 43.9493 15.088C43.9493 15.888 43.7093 16.6 43.2293 17.224C42.7493 17.848 42.0453 18.336 41.1173 18.688C40.2053 19.024 39.1173 19.192 37.8533 19.192ZM54.1073 5.896C55.7073 5.896 56.9953 6.376 57.9713 7.336C58.9633 8.296 59.4593 9.72 59.4593 11.608V19H55.7153V12.184C55.7153 11.16 55.4913 10.4 55.0433 9.904C54.5953 9.392 53.9473 9.136 53.0993 9.136C52.1553 9.136 51.4033 9.432 50.8433 10.024C50.2833 10.6 50.0033 11.464 50.0033 12.616V19H46.2593V1.192H50.0033V7.432C50.4993 6.936 51.0993 6.56 51.8033 6.304C52.5073 6.032 53.2753 5.896 54.1073 5.896ZM62.853 6.088H66.597V19H62.853V6.088ZM64.725 4.288C64.037 4.288 63.477 4.088 63.045 3.688C62.613 3.288 62.397 2.792 62.397 2.2C62.397 1.608 62.613 1.112 63.045 0.711999C63.477 0.311999 64.037 0.111999 64.725 0.111999C65.413 0.111999 65.973 0.303999 66.405 0.688C66.837 1.072 67.053 1.552 67.053 2.128C67.053 2.752 66.837 3.272 66.405 3.688C65.973 4.088 65.413 4.288 64.725 4.288Z" fill="black"/>
</svg>
