<svg viewBox="0 0 66 67" fill="none" xmlns="http://www.w3.org/2000/svg">
<path d="M17.371 66.1408C20.0547 66.1408 22.2302 63.9652 22.2302 61.2815C22.2302 58.5978 20.0547 56.4222 17.371 56.4222C14.6873 56.4222 12.5117 58.5978 12.5117 61.2815C12.5117 63.9652 14.6873 66.1408 17.371 66.1408Z" fill="black" fill-opacity="0.24"/>
<path d="M39.8446 66.1408C42.5283 66.1408 44.7039 63.9652 44.7039 61.2815C44.7039 58.5978 42.5283 56.4222 39.8446 56.4222C37.1609 56.4222 34.9854 58.5978 34.9854 61.2815C34.9854 63.9652 37.1609 66.1408 39.8446 66.1408Z" fill="black" fill-opacity="0.24"/>
<path d="M57.4597 1.14813H64.7486V6.00739H57.4597V1.14813ZM57.4597 3.57776H53.2079L50.7782 13.2963L57.4597 3.57776ZM50.1708 18.1719L45.3116 43.6666L10.6893 40.0222L5.83008 18.1719H50.1708Z" stroke="#484848" stroke-width="1.82222" stroke-linecap="round" stroke-linejoin="round"/>
<path d="M53.8151 12.6889H2.18552C1.51459 12.6889 0.970703 13.2328 0.970703 13.9037V18.1555C0.970703 18.8265 1.51459 19.3704 2.18552 19.3704H53.8151C54.4861 19.3704 55.03 18.8265 55.03 18.1555V13.9037C55.03 13.2328 54.4861 12.6889 53.8151 12.6889Z" fill="black" fill-opacity="0.24"/>
<path d="M21.7595 35.0111L21.1521 22.8629M11.2969 52.7778H43.4895C43.8117 52.7778 44.1206 52.6498 44.3485 52.422C44.5763 52.1941 44.7043 51.8851 44.7043 51.5629C44.7043 50.8055 44.321 50.0991 43.6857 49.6861L32.5561 42.4518L11.2969 52.7778ZM28.0461 35.6185V22.8629V35.6185ZM34.857 36.2259L36.0718 22.8629L34.857 36.2259ZM41.3259 36.8333L43.7555 22.8629L41.3259 36.8333ZM15.3592 34.4037L13.537 22.8629L15.3592 34.4037Z" stroke="#484848" stroke-width="1.82222" stroke-linecap="round" stroke-linejoin="round"/>
</svg>
