<svg xmlns="http://www.w3.org/2000/svg" width="24" height="24"><g fill="none"><path fill="#3E82F1" d="M22.628 12.407c0-.757-.069-1.485-.195-2.184H12.377v4.13h5.747a4.913 4.913 0 0 1-2.13 3.223v2.68h3.45c2.02-1.86 3.184-4.598 3.184-7.849z"/><path fill="#84C502" d="M12.377 22.842c2.883 0 5.3-.957 7.067-2.587l-3.45-2.68c-.957.641-2.18 1.019-3.617 1.019-2.781 0-5.135-1.878-5.974-4.402H2.836v2.766a10.673 10.673 0 0 0 9.541 5.884z"/><path fill="#F9BB00" d="M6.403 14.193a6.426 6.426 0 0 1-.334-2.029c0-.704.12-1.388.335-2.029V7.37H2.836A10.675 10.675 0 0 0 1.7 12.164c0 1.722.412 3.354 1.136 4.794l3.566-2.765z"/><path fill="#EE6344" d="M12.377 5.733c1.569 0 2.976.54 4.082 1.597l3.063-3.063c-1.85-1.722-4.268-2.78-7.145-2.78A10.673 10.673 0 0 0 2.836 7.37l3.567 2.766c.84-2.525 3.194-4.403 5.974-4.403z"/></g></svg>