<svg viewBox="0 0 28 28" fill="#f69026" xmlns="http://www.w3.org/2000/svg">
<path d="M21.2905 15.645C20.3735 17.5035 19.131 19.355 17.8605 21.0175C16.6553 22.5848 15.3666 24.0862 14 25.515C12.6334 24.0862 11.3447 22.5849 10.1395 21.0175C8.869 19.355 7.6265 17.5035 6.7095 15.645C5.782 13.7672 5.25 12.0085 5.25 10.5C5.25 8.17936 6.17187 5.95376 7.81282 4.31282C9.45376 2.67187 11.6794 1.75 14 1.75C16.3206 1.75 18.5462 2.67187 20.1872 4.31282C21.8281 5.95376 22.75 8.17936 22.75 10.5C22.75 12.0085 22.2163 13.7672 21.2905 15.645ZM14 28C14 28 24.5 18.0495 24.5 10.5C24.5 7.71523 23.3938 5.04451 21.4246 3.07538C19.4555 1.10625 16.7848 0 14 0C11.2152 0 8.54451 1.10625 6.57538 3.07538C4.60625 5.04451 3.5 7.71523 3.5 10.5C3.5 18.0495 14 28 14 28Z" fill="#f69026"/>
<path d="M14 14C13.0717 14 12.1815 13.6313 11.5251 12.9749C10.8687 12.3185 10.5 11.4283 10.5 10.5C10.5 9.57174 10.8687 8.6815 11.5251 8.02513C12.1815 7.36875 13.0717 7 14 7C14.9283 7 15.8185 7.36875 16.4749 8.02513C17.1313 8.6815 17.5 9.57174 17.5 10.5C17.5 11.4283 17.1313 12.3185 16.4749 12.9749C15.8185 13.6313 14.9283 14 14 14ZM14 15.75C15.3924 15.75 16.7277 15.1969 17.7123 14.2123C18.6969 13.2277 19.25 11.8924 19.25 10.5C19.25 9.10761 18.6969 7.77226 17.7123 6.78769C16.7277 5.80312 15.3924 5.25 14 5.25C12.6076 5.25 11.2723 5.80312 10.2877 6.78769C9.30312 7.77226 8.75 9.10761 8.75 10.5C8.75 11.8924 9.30312 13.2277 10.2877 14.2123C11.2723 15.1969 12.6076 15.75 14 15.75V15.75Z" fill="#f69026"/>
</svg>
